<svg width="196" height="195" viewBox="0 0 196 195" fill="none" xmlns="http://www.w3.org/2000/svg">
<ellipse cx="98" cy="97.5" rx="98" ry="97.5" fill="url(#paint0_linear_75_52)"/>
<path d="M193.5 97.5C193.5 149.955 150.755 192.5 98 192.5C45.2447 192.5 2.5 149.955 2.5 97.5C2.5 45.045 45.2447 2.5 98 2.5C150.755 2.5 193.5 45.045 193.5 97.5Z" stroke="url(#paint1_linear_75_52)" stroke-width="5"/>
<path d="M93.3281 72.0938C93.7344 72.0938 94.2344 72.1562 94.8281 72.2812L95.1328 72.3516H95.3203C95.6172 72.3984 95.8672 72.4609 96.0703 72.5391H96.2812C96.5156 72.5859 96.6953 72.625 96.8203 72.6562C96.9609 72.6719 97.1484 72.6953 97.3828 72.7266L97.6172 72.7969L97.9688 72.8672L98.2266 72.9141L98.5781 72.9844L98.9766 73.0547C99.2734 73.1016 99.5391 73.1406 99.7734 73.1719L100.758 73.3594V74.5078L100.711 74.9766L100.664 75.8672C100.633 75.8984 100.617 75.9844 100.617 76.125C100.617 76.25 100.602 76.375 100.57 76.5V76.9453L100.523 77.5078L100.453 78.2109L100.406 78.3516V78.7266L100.359 79.1719C100.328 79.3906 100.312 79.6484 100.312 79.9453L100.266 80.6484L100.219 80.7656V81.1641L100.172 81.3516V81.7969L100.125 81.9141V82.3125L100.055 82.8047C100.023 83.4453 99.9766 84.0234 99.9141 84.5391V84.9141C99.8828 84.9609 99.8672 85.0469 99.8672 85.1719V85.5L99.8203 85.875L99.7734 86.3203L99.7266 86.8359V87.2109L99.6562 87.6094L99.6094 87.9844C99.6094 88.3281 99.5781 88.7344 99.5156 89.2031C99.4844 89.6719 99.4688 90.0547 99.4688 90.3516L99.4219 90.6562C99.3906 91.2969 99.3359 91.875 99.2578 92.3906V92.5781L99.2109 93.2812L99.1641 93.7266L99.1172 94.1719V94.4297L99.0703 94.7578L99.0234 95.7656L98.9766 96.0938C98.9766 96.3906 98.9375 96.7266 98.8594 97.1016L98.8125 97.8047C98.8125 98.1016 98.7812 98.4844 98.7188 98.9531V99.3984C98.625 100.039 98.5781 100.57 98.5781 100.992L98.4609 102.094C98.4609 102.469 98.4141 103 98.3203 103.688L98.2734 104.695L98.2266 105.398C98.1484 105.695 98.1094 106.078 98.1094 106.547L98.0625 106.688V107.133C98.0312 107.305 98.0156 107.516 98.0156 107.766C97.9844 107.891 97.9688 108.062 97.9688 108.281L97.9219 108.844L97.875 109.102V109.617C97.8125 110.086 97.7812 110.492 97.7812 110.836L97.7109 111.141H94.8281L94.7812 109.477L94.7344 109.242V108.727C94.7656 108.555 94.75 108.344 94.6875 108.094L94.6406 105.984L94.5703 105.586V104.438L94.5234 104.062L94.3828 99.4688C94.3516 99.3438 94.3359 99.1719 94.3359 98.9531L94.2422 95.6484L94.1719 95.4375L94.0312 90.9844L93.9844 90.4688L93.9375 88.2422L93.8906 88.1016V87.0234L93.8438 86.5078L93.7734 84.3984C93.7422 84.3672 93.7266 84.2891 93.7266 84.1641L93.6797 81.9141L93.6328 81.7969V80.7188C93.5703 80.4062 93.5547 80.0234 93.5859 79.5703L93.5391 79.1016V78.2109C93.5078 78.0859 93.4922 77.9219 93.4922 77.7188L93.4453 76.125L93.375 75.0938C93.4219 74.8438 93.4062 74.5859 93.3281 74.3203V72.0938Z" fill="#FBFAFA"/>
<defs>
<linearGradient id="paint0_linear_75_52" x1="98" y1="0" x2="98" y2="195" gradientUnits="userSpaceOnUse">
<stop stop-color="#269046"/>
<stop offset="1" stop-color="#A2CC44"/>
</linearGradient>
<linearGradient id="paint1_linear_75_52" x1="98" y1="0" x2="98" y2="195" gradientUnits="userSpaceOnUse">
<stop stop-color="#A2CC44"/>
<stop offset="1" stop-color="#269046"/>
</linearGradient>
</defs>
</svg>
