<svg width="54" height="54" viewBox="0 0 54 54" fill="none" xmlns="http://www.w3.org/2000/svg">
<rect width="54" height="54" rx="12" fill="#269046"/>
<path d="M32.5781 27C31.9941 27 31.4231 27.1732 30.9375 27.4977C30.4518 27.8222 30.0733 28.2834 29.8498 28.823C29.6263 29.3626 29.5678 29.9564 29.6817 30.5293C29.7957 31.1021 30.0769 31.6283 30.49 32.0413C30.903 32.4543 31.4291 32.7356 32.002 32.8495C32.5748 32.9635 33.1686 32.905 33.7082 32.6815C34.2479 32.4579 34.7091 32.0794 35.0336 31.5938C35.3581 31.1082 35.5313 30.5372 35.5313 29.9531C35.5313 29.1699 35.2201 28.4188 34.6663 27.865C34.1125 27.3111 33.3613 27 32.5781 27Z" fill="#F7FBFE"/>
<path d="M22.5522 32.6815C24.059 32.0574 24.7746 30.3299 24.1504 28.8231C23.5263 27.3163 21.7988 26.6007 20.292 27.2249C18.7852 27.849 18.0696 29.5765 18.6938 31.0833C19.3179 32.5901 21.0454 33.3057 22.5522 32.6815Z" fill="#F7FBFE"/>
<path d="M46.6875 26.8171C46.6875 24.2585 44.6252 22.1774 42.0937 22.1774C41.0267 22.1773 39.9933 22.5505 39.1726 23.2323C36.3015 21.2824 32.5461 20.0889 28.5372 19.8469L30.3419 13.3664L35.7896 14.4492C35.9455 16.6214 37.7584 18.3449 39.9445 18.3449C42.2414 18.3449 44.1101 16.4582 44.1101 14.1441C44.1101 11.83 42.1758 9.9375 39.8789 9.9375C38.2768 9.9375 36.9003 10.8554 36.1998 12.2975L28.817 10.83L26.2658 19.8141L25.886 19.8247C21.7328 20.006 17.819 21.2135 14.8306 23.2315C14.0101 22.5472 12.9747 22.1739 11.9062 22.1774C9.37229 22.1774 7.31248 24.2585 7.31248 26.8171C7.30887 27.6314 7.52015 28.4323 7.92502 29.1389C8.32988 29.8455 8.91399 30.4328 9.61838 30.8415C9.56933 31.2042 9.54494 31.5698 9.54538 31.9358C9.5544 35.1957 11.3903 38.2522 14.7133 40.5491C18.0061 42.8132 22.366 44.0625 27 44.0625C31.6339 44.0625 36.0037 42.8132 39.2907 40.5442C42.6155 38.2473 44.4464 35.19 44.4464 31.926C44.4456 31.5612 44.4226 31.1969 44.3775 30.835C45.0823 30.428 45.6671 29.8422 46.0727 29.1366C46.4784 28.4311 46.6904 27.6309 46.6875 26.8171ZM39.9609 12.1523C40.3503 12.1523 40.7309 12.2678 41.0547 12.4841C41.3785 12.7005 41.6308 13.0079 41.7798 13.3677C41.9288 13.7274 41.9678 14.1233 41.8918 14.5052C41.8159 14.8871 41.6284 15.2379 41.353 15.5132C41.0777 15.7885 40.7269 15.9761 40.345 16.052C39.9631 16.128 39.5673 16.089 39.2075 15.94C38.8478 15.791 38.5403 15.5386 38.324 15.2149C38.1076 14.8911 37.9922 14.5105 37.9922 14.1211C37.9922 13.5989 38.1996 13.0982 38.5688 12.729C38.938 12.3598 39.4388 12.1523 39.9609 12.1523ZM9.50436 26.8171C9.50196 26.1741 9.75469 25.5564 10.2071 25.0995C10.6596 24.6426 11.2747 24.3838 11.9177 24.3799C12.3076 24.3807 12.6912 24.4774 13.035 24.6613C11.7635 25.8434 10.8259 27.1559 10.2402 28.5725C10.008 28.3428 9.82341 28.0695 9.69713 27.7682C9.57086 27.467 9.50535 27.1437 9.50436 26.8171ZM38.0594 38.7305C35.1276 40.7476 31.2016 41.8591 27.0041 41.8591C22.8065 41.8591 18.8789 40.7493 15.9496 38.7305C13.2425 36.861 11.7463 34.4435 11.7463 31.9219C11.7478 31.1578 11.8853 30.4 12.1523 29.6841C12.6183 28.3929 13.478 27.1838 14.7076 26.0919C15.0918 25.7525 15.4961 25.4367 15.9184 25.1461L15.943 25.1289L15.9627 25.1149C18.8928 23.1035 22.8139 21.9977 27.0049 21.9977C31.1959 21.9977 35.1178 23.106 38.048 25.1149L38.0668 25.1289L38.0947 25.1494C38.5164 25.4389 38.9205 25.7534 39.3047 26.0911C40.5351 27.1838 41.3948 28.3921 41.8608 29.6849C42.0299 30.1541 42.1484 30.64 42.2143 31.1344C42.2472 31.397 42.2637 31.6613 42.2635 31.926C42.2627 34.446 40.7697 36.8634 38.0594 38.7305ZM43.7688 28.5652C43.1839 27.1477 42.2463 25.8343 40.974 24.6506C41.3191 24.4686 41.7036 24.374 42.0937 24.375C42.7366 24.3789 43.3517 24.6377 43.804 25.0946C44.2563 25.5515 44.5089 26.1692 44.5063 26.8121C44.5057 27.1389 44.4402 27.4622 44.3136 27.7635C44.187 28.0647 44.0018 28.3377 43.7688 28.5668V28.5652Z" fill="#F7FBFE"/>
<path d="M32.515 35.7135C32.4945 35.7341 30.4183 37.8521 27.0066 37.8685C23.5613 37.8521 21.5695 35.7989 21.4851 35.7135C21.4215 35.6505 21.3355 35.6151 21.2459 35.6151C21.1564 35.6151 21.0704 35.6505 21.0068 35.7135L19.883 36.8185C19.8511 36.8501 19.8258 36.8878 19.8086 36.9292C19.7913 36.9707 19.7824 37.0152 19.7824 37.0601C19.7824 37.105 19.7913 37.1495 19.8086 37.1909C19.8258 37.2324 19.8511 37.27 19.883 37.3017C20.1619 37.5806 22.7295 40.1096 27.0017 40.1276C31.2624 40.1096 33.8414 37.5806 34.1203 37.3017C34.1522 37.27 34.1775 37.2322 34.1948 37.1907C34.2121 37.1492 34.221 37.1047 34.221 37.0597C34.221 37.0147 34.2121 36.9702 34.1948 36.9286C34.1775 36.8871 34.1522 36.8494 34.1203 36.8177L32.9957 35.7127C32.9322 35.65 32.8466 35.6147 32.7574 35.6147C32.6681 35.6147 32.5825 35.65 32.5191 35.7127L32.515 35.7135Z" fill="#F7FBFE"/>
</svg>
