<svg width="54" height="54" viewBox="0 0 54 54" fill="none" xmlns="http://www.w3.org/2000/svg">
<rect width="54" height="54" rx="12" fill="#269046"/>
<path d="M20.4501 40C19.3654 40 19.5601 39.5862 19.1707 38.5655L16 28.1931L35.6915 16L38 16.6069L36.0809 21.7931L20.4501 40Z" fill="#C8DAEA"/>
<path d="M20 40C20.8571 40 21.2286 39.6419 21.7143 39.2326C22.4571 38.593 32 30.2791 32 30.2791L26.1429 29L20.7143 32.0698L20 39.7442V40Z" fill="#A9C9DD"/>
<path d="M21.0874 31.8058L34.4373 41.5946C35.9543 42.4172 37.0576 42.0059 37.4438 40.1962L42.8775 14.7509C43.4291 12.5299 42.0224 11.5428 40.5606 12.2008L8.67525 24.43C6.49623 25.3074 6.52382 26.5138 8.28909 27.0348L16.4811 29.5848L35.4302 17.7122C36.3129 17.1638 37.1404 17.4654 36.4784 18.0686L21.0874 31.8058Z" fill="url(#paint0_linear_12_1571)"/>
<defs>
<linearGradient id="paint0_linear_12_1571" x1="29.0838" y1="26.1451" x2="35.9208" y2="37.1493" gradientUnits="userSpaceOnUse">
<stop stop-color="#EFF7FC"/>
<stop offset="1" stop-color="white"/>
</linearGradient>
</defs>
</svg>
