<svg width="196" height="195" viewBox="0 0 196 195" fill="none" xmlns="http://www.w3.org/2000/svg">
<ellipse cx="98" cy="97.5" rx="98" ry="97.5" fill="url(#paint0_linear_75_62)"/>
<path d="M193.5 97.5C193.5 149.955 150.755 192.5 98 192.5C45.2447 192.5 2.5 149.955 2.5 97.5C2.5 45.045 45.2447 2.5 98 2.5C150.755 2.5 193.5 45.045 193.5 97.5Z" stroke="url(#paint1_linear_75_62)" stroke-width="5"/>
<path d="M88.1328 73.8984C88.4453 73.8047 88.8125 73.6562 89.2344 73.4531C93.7656 71.9219 98.4453 72.0703 103.273 73.8984L104.516 74.5781C104.641 74.6719 104.844 74.7969 105.125 74.9531L106.109 75.7031L106.227 75.8672C109.586 79.1641 110.016 83.0703 107.516 87.5859C109.969 88.9453 111.633 91.0703 112.508 93.9609C113.32 96.6328 112.984 99.3828 111.5 102.211C107.562 108.492 101.508 111.312 93.3359 110.672L92.3516 106.992C96.7109 106.695 100.664 105.008 104.211 101.93L105.734 99.8438L106.133 98.7188L106.273 97.8516C106.258 97.4609 106.18 97.0078 106.039 96.4922L105.898 96L105.336 95.2031C105.18 94.9688 104.953 94.7344 104.656 94.5L104.562 94.3828C100.172 91.8672 95 91.9453 89.0469 94.6172L87.6641 89.5078L92.5625 88.0547L93.2656 87.75L93.7812 87.5391L94.0625 87.4688L94.2969 87.3281L94.8125 87.1172C95.0625 86.9609 95.4062 86.8047 95.8438 86.6484L96.1953 86.4141L96.4062 86.3672C96.4375 86.3047 96.5156 86.2578 96.6406 86.2266L99.9688 83.9766C100.078 83.8203 100.25 83.6641 100.484 83.5078L100.812 83.1328L101.188 82.6406L101.352 82.4531L101.656 81.9844C101.922 81.4062 102.008 80.75 101.914 80.0156C101.711 79.6094 101.398 79.2422 100.977 78.9141L100.883 78.7969C100.352 78.4375 99.6562 78.1719 98.7969 78L98.6328 77.9062L96.9922 77.6719H96.7109L95.6094 77.5781L95.2109 77.6016H94.4844H93.6875L90.8516 77.9062L90.6406 77.9531C90.3125 77.9531 89.9297 78.0156 89.4922 78.1406L89.0703 78.1641L88.2734 78.3984L87.7812 78.4453L84.9219 79.2188L84.0312 75.9375L85.4609 75.0703L85.8828 74.8359C86.1016 74.7266 86.25 74.6641 86.3281 74.6484L86.8438 74.3672C87.1406 74.2891 87.5 74.1484 87.9219 73.9453L88.1328 73.8984Z" fill="#FBFAFA"/>
<defs>
<linearGradient id="paint0_linear_75_62" x1="98" y1="0" x2="98" y2="195" gradientUnits="userSpaceOnUse">
<stop stop-color="#269046"/>
<stop offset="1" stop-color="#A2CC44"/>
</linearGradient>
<linearGradient id="paint1_linear_75_62" x1="98" y1="0" x2="98" y2="195" gradientUnits="userSpaceOnUse">
<stop stop-color="#A2CC44"/>
<stop offset="1" stop-color="#269046"/>
</linearGradient>
</defs>
</svg>
