<svg width="196" height="196" viewBox="0 0 196 196" fill="none" xmlns="http://www.w3.org/2000/svg">
<circle cx="98" cy="98" r="98" fill="url(#paint0_linear_75_57)"/>
<circle cx="98" cy="98" r="95.5" stroke="url(#paint1_linear_75_57)" stroke-width="5"/>
<path d="M94.1875 72.7422H96.8828C102.414 74.2109 105.484 78.3047 106.094 85.0234C106.625 90.1484 104.938 94.5234 101.031 98.1484C100.781 98.2734 100.516 98.4609 100.234 98.7109L99.8125 98.9453C99.6875 98.9922 99.5234 99.0781 99.3203 99.2031L99.1328 99.25C98.8516 99.4219 98.5078 99.5703 98.1016 99.6953L97.9141 99.8125L97.6094 100.914L97.5391 101.219L97.375 101.875L97.3047 102.25L97 103.234L96.9297 103.469L96.8828 103.773C97.1641 103.82 97.4844 103.805 97.8438 103.727H98.2188L98.6406 103.656H98.8281C98.875 103.609 99.0156 103.586 99.25 103.586L99.5078 103.539C99.8672 103.539 100.312 103.5 100.844 103.422H101.102L101.641 103.352L102.32 103.281L102.438 103.234H102.812L102.977 103.164H103.422L103.539 103.117H103.891C104.516 103.07 105.008 103.008 105.367 102.93H105.555L107.078 102.742H107.5C107.797 102.695 108.023 102.656 108.18 102.625H108.672L109.211 102.555C109.336 102.508 109.5 102.484 109.703 102.484L110.125 102.438L110.617 102.367L111.977 102.25C112.008 102.703 112.023 103.07 112.023 103.352V104.875C112.102 105.156 112.125 105.461 112.094 105.789V106.844L112.141 107.148V110.805H108.602L108.367 110.734H106.539C106.414 110.703 106.25 110.688 106.047 110.688H104.523L103.844 110.617H102.555L102.367 110.57H100.422L100.234 110.5H98.4062L98.2188 110.43H96.3906L96.2734 110.383H94.5625L94.0703 110.312H92.3594L92.2422 110.242H91.2578L91.3047 109.82L91.375 109.328C91.4219 109.094 91.4453 108.891 91.4453 108.719C91.4766 108.688 91.4922 108.547 91.4922 108.297L91.5625 107.922L91.6328 107.5C91.7109 107.297 91.75 107.031 91.75 106.703L91.7969 106.516V106.211L91.8672 105.977L91.9844 105.133L92.0547 104.688L92.1016 104.453L92.2422 103.469L92.2891 102.977C92.3359 102.742 92.375 102.562 92.4062 102.438V102.062C92.5781 101.531 92.6797 101.086 92.7109 100.727L92.8516 100.164L92.8984 99.7422C92.9453 99.4609 92.9844 99.2578 93.0156 99.1328C93.0625 99.0078 93.0859 98.8672 93.0859 98.7109L93.1562 98.4062C93.2344 98.125 93.2734 97.8984 93.2734 97.7266L93.3906 97.2344V97.0469L93.5078 96.625C93.5547 96.3438 93.5781 96.1406 93.5781 96.0156C93.8594 96.0156 94.2266 96.0781 94.6797 96.2031H95.5938C99.0156 94.9844 100.586 92.1328 100.305 87.6484C100.055 84.3516 98.6094 82.1719 95.9688 81.1094C93.2344 80.7812 91.3594 82.1484 90.3438 85.2109L88.5156 85.1406C88.2656 85.1094 87.9766 85.0938 87.6484 85.0938L86.8516 85.0234C86.6953 85.0234 86.4922 85 86.2422 84.9531H85.7031L85.0234 84.9062C85.2734 79.8438 87.5938 76.0156 91.9844 73.4219L93.3438 72.9297L94 72.8125L94.1875 72.7422Z" fill="#FBFAFA"/>
<defs>
<linearGradient id="paint0_linear_75_57" x1="98" y1="0" x2="98" y2="196" gradientUnits="userSpaceOnUse">
<stop stop-color="#269046"/>
<stop offset="1" stop-color="#A2CC44"/>
</linearGradient>
<linearGradient id="paint1_linear_75_57" x1="98" y1="0" x2="98" y2="196" gradientUnits="userSpaceOnUse">
<stop stop-color="#A2CC44"/>
<stop offset="1" stop-color="#269046"/>
</linearGradient>
</defs>
</svg>
